<svg xmlns="http://www.w3.org/2000/svg" viewBox="0 0 512.001 511.998">
  <defs>
    <style>
      .cls-1 {
        fill: #e06c6c;
      }
    </style>
  </defs>
  <g id="agama" transform="translate(0 -0.001)">
    <g id="Group_1" data-name="Group 1">
      <path id="Path_1" data-name="Path 1" class="cls-1" d="M503.613,362.535l-57.784-28.392A44.757,44.757,0,0,1,421,293.916V217.245a105.486,105.486,0,0,0-11.066-46.92L339.664,28.792A52.037,52.037,0,0,0,256,15.558a52.039,52.039,0,0,0-83.685,13.271L102.085,170.287A105.536,105.536,0,0,0,91,217.245v76.671a44.756,44.756,0,0,1-24.832,40.227L8.387,362.536a15,15,0,0,0-6.779,20.215l61,121a15.006,15.006,0,0,0,20.184,6.623L212.958,444.29A104.736,104.736,0,0,0,256,404.43a104.659,104.659,0,0,0,42.961,39.818L429.21,510.372a15,15,0,0,0,20.185-6.623l61-121A15.009,15.009,0,0,0,503.613,362.535ZM241,350.375A74.625,74.625,0,0,1,199.459,417.5L82.624,476.813,35.218,382.778l44.231-21.733.093-.046A74.589,74.589,0,0,0,121,293.918V217.247a75.425,75.425,0,0,1,7.937-33.579L199.167,42.21A22.082,22.082,0,0,1,241,52.085c0,14.949.547,18.283-2.332,24.039a825.078,825.078,0,0,0-43.341,101.618c0,.009-11.763,33.257-11.763,33.257A44.887,44.887,0,0,0,181,226v90a15,15,0,0,0,30,0V226a15,15,0,0,1,30,0ZM226.024,181c9.276-25.6,19.3-49.732,29.884-71.977,10.591,22.67,20.625,46.76,29.971,71.977A44.819,44.819,0,0,0,256,192.495,44.814,44.814,0,0,0,226.024,181ZM429.376,476.813,312.459,417.456A74.588,74.588,0,0,1,271,350.375V226a15,15,0,1,1,30,0v90a15,15,0,0,0,30,0V226c0-10.183-2.606-15.117-11.41-40.011A969.807,969.807,0,0,0,273.331,76.122C270.462,70.383,271,67.178,271,52.082a22.081,22.081,0,0,1,41.813-9.913L383.081,183.7A75.378,75.378,0,0,1,391,217.245v76.671A74.587,74.587,0,0,0,432.458,361l.093.046,44.232,21.733Z"/>
    </g>
  </g>
</svg>
