<svg xmlns="http://www.w3.org/2000/svg" viewBox="0 0 512 512">
  <defs>
    <style>
      .cls-1 {
        fill: #fc9937;
      }
    </style>
  </defs>
  <path id="biology" class="cls-1" d="M452,392a59.594,59.594,0,0,0-30.453,8.336l-51.484-51.484A104.945,104.945,0,0,0,301,182.078V118.1a60,60,0,1,0-30,0v63.977a104.961,104.961,0,0,0-77.648,153.289L97.938,405.555a60.01,60.01,0,1,0,17.762,24.18l95.43-70.2a104.8,104.8,0,0,0,137.719,10.527l51.484,51.484A59.981,59.981,0,1,0,452,392ZM60,482a30,30,0,1,1,30-30A30.033,30.033,0,0,1,60,482ZM256,60a30,30,0,1,1,30,30A30.035,30.035,0,0,1,256,60Zm30,301a75,75,0,1,1,75-75A75.085,75.085,0,0,1,286,361ZM452,482a30,30,0,1,1,30-30A30.033,30.033,0,0,1,452,482Zm0,0"/>
</svg>
