<svg xmlns="http://www.w3.org/2000/svg" viewBox="0 0 257.519 355.054">
  <defs>
    <style>
      .cls-1, .cls-4, .cls-7, .cls-8 {
        fill: #fff;
      }

      .cls-1, .cls-10, .cls-12, .cls-8, .cls-9 {
        stroke: #69d37e;
      }

      .cls-1, .cls-10, .cls-12, .cls-2, .cls-3, .cls-7, .cls-8, .cls-9 {
        stroke-miterlimit: 10;
      }

      .cls-1, .cls-12, .cls-9 {
        stroke-width: 4px;
      }

      .cls-10, .cls-12, .cls-2, .cls-3 {
        fill: none;
      }

      .cls-2, .cls-3 {
        stroke: #c4f7d2;
      }

      .cls-10, .cls-2, .cls-7, .cls-8 {
        stroke-width: 2px;
      }

      .cls-5 {
        fill: #1485e0;
      }

      .cls-6 {
        fill: #69d37e;
      }

      .cls-7 {
        stroke: #1485e0;
      }

      .cls-11, .cls-9 {
        fill: #c4f7d2;
      }
    </style>
  </defs>
  <g id="catatan" transform="translate(-16.111 698.972)">
    <g id="documents" transform="translate(-632.9 -1121)">
      <g id="front_4_">
        <rect id="base_7_" class="cls-1" width="190" height="267" transform="matrix(0.966, -0.259, 0.259, 0.966, 651.46, 473.65)"/>
        <g id="lines_3_">
          <line id="XMLID_268_" class="cls-2" x2="65" y2="242.4" transform="translate(686.4 472.6)"/>
          <line id="XMLID_267_" class="cls-3" y1="46.3" x2="172.9" transform="translate(664.4 452.3)"/>
          <line id="XMLID_266_" class="cls-3" y1="46.4" x2="172.9" transform="translate(666.5 460)"/>
          <line id="XMLID_265_" class="cls-3" y1="46.3" x2="172.9" transform="translate(668.6 467.8)"/>
          <line id="XMLID_264_" class="cls-3" y1="46.3" x2="172.9" transform="translate(670.7 475.5)"/>
          <line id="XMLID_263_" class="cls-3" y1="46.4" x2="172.9" transform="translate(672.7 483.2)"/>
          <line id="XMLID_262_" class="cls-3" y1="46.3" x2="172.9" transform="translate(674.8 491)"/>
          <line id="XMLID_261_" class="cls-3" y1="46.3" x2="172.9" transform="translate(676.9 498.7)"/>
          <line id="XMLID_260_" class="cls-3" y1="46.3" x2="172.9" transform="translate(678.9 506.4)"/>
          <line id="XMLID_259_" class="cls-3" y1="46.4" x2="172.9" transform="translate(681 514.1)"/>
          <line id="XMLID_258_" class="cls-3" y1="46.3" x2="172.9" transform="translate(683.1 521.9)"/>
          <line id="XMLID_257_" class="cls-3" y1="46.3" x2="172.9" transform="translate(685.1 529.6)"/>
          <line id="XMLID_256_" class="cls-3" y1="46.3" x2="172.9" transform="translate(687.2 537.3)"/>
          <line id="XMLID_255_" class="cls-3" y1="46.4" x2="172.9" transform="translate(689.3 545)"/>
          <line id="XMLID_254_" class="cls-3" y1="46.3" x2="172.9" transform="translate(691.4 552.8)"/>
          <line id="XMLID_253_" class="cls-3" y1="46.3" x2="172.9" transform="translate(693.4 560.5)"/>
          <line id="XMLID_252_" class="cls-3" y1="46.4" x2="172.9" transform="translate(695.5 568.2)"/>
          <line id="XMLID_251_" class="cls-3" y1="46.3" x2="172.9" transform="translate(697.6 576)"/>
          <line id="XMLID_250_" class="cls-3" y1="46.3" x2="172.9" transform="translate(699.6 583.7)"/>
          <line id="XMLID_249_" class="cls-3" y1="46.3" x2="172.9" transform="translate(701.7 591.4)"/>
          <line id="XMLID_248_" class="cls-3" y1="46.4" x2="172.9" transform="translate(703.8 599.1)"/>
          <line id="XMLID_247_" class="cls-3" y1="46.3" x2="172.9" transform="translate(705.9 606.9)"/>
          <line id="XMLID_246_" class="cls-3" y1="46.3" x2="172.9" transform="translate(707.9 614.6)"/>
          <line id="XMLID_245_" class="cls-3" y1="46.3" x2="172.9" transform="translate(710 622.3)"/>
          <line id="XMLID_244_" class="cls-3" y1="46.4" x2="172.9" transform="translate(712.1 630)"/>
          <line id="XMLID_243_" class="cls-3" y1="46.3" x2="172.9" transform="translate(714.1 637.8)"/>
          <line id="XMLID_242_" class="cls-3" y1="46.3" x2="172.9" transform="translate(716.2 645.5)"/>
          <line id="XMLID_241_" class="cls-3" y1="46.4" x2="172.9" transform="translate(718.3 653.2)"/>
          <line id="XMLID_240_" class="cls-3" y1="46.3" x2="172.9" transform="translate(720.3 661)"/>
          <line id="XMLID_239_" class="cls-3" y1="46.3" x2="172.9" transform="translate(722.4 668.7)"/>
        </g>
        <g id="holes_3_">
          <g id="XMLID_238_">
            <path id="XMLID_507_" class="cls-4" d="M728.1,705.6a4.026,4.026,0,0,1-1.1-7.9,3.4,3.4,0,0,1,1-.1,4.026,4.026,0,0,1,1.1,7.9C728.8,705.5,728.5,705.6,728.1,705.6Z"/>
            <path id="XMLID_504_" class="cls-5" d="M728.1,698.6h0a3,3,0,0,1,2.9,2.2,3.071,3.071,0,0,1-2.1,3.7,2.2,2.2,0,0,1-.8.1,3,3,0,0,1-2.9-2.2,3.071,3.071,0,0,1,2.1-3.7,2.486,2.486,0,0,1,.8-.1m0-2a5.85,5.85,0,0,0-1.3.2,4.887,4.887,0,0,0-3.5,6.1,5.012,5.012,0,0,0,4.8,3.7,5.85,5.85,0,0,0,1.3-.2,4.887,4.887,0,0,0,3.5-6.1,4.818,4.818,0,0,0-4.8-3.7Z"/>
          </g>
          <g id="XMLID_237_">
            <path id="XMLID_502_" class="cls-4" d="M700.6,602.7a4.052,4.052,0,0,1-3.9-3,3.939,3.939,0,0,1,.4-3,4.147,4.147,0,0,1,2.4-1.9,3.4,3.4,0,0,1,1-.1,4.052,4.052,0,0,1,3.9,3,3.939,3.939,0,0,1-.4,3,4.147,4.147,0,0,1-2.4,1.9A3.4,3.4,0,0,1,700.6,602.7Z"/>
            <path id="XMLID_499_" class="cls-5" d="M700.6,595.7h0a3,3,0,0,1,2.9,2.2,3.064,3.064,0,0,1-.3,2.3,2.827,2.827,0,0,1-1.8,1.4,2.2,2.2,0,0,1-.8.1,3,3,0,0,1-2.9-2.2,3.064,3.064,0,0,1,.3-2.3,2.827,2.827,0,0,1,1.8-1.4,2.2,2.2,0,0,1,.8-.1m0-2a5.85,5.85,0,0,0-1.3.2,4.887,4.887,0,0,0-3.5,6.1,5.012,5.012,0,0,0,4.8,3.7,5.85,5.85,0,0,0,1.3-.2,4.887,4.887,0,0,0,3.5-6.1,5.012,5.012,0,0,0-4.8-3.7Z"/>
          </g>
          <g id="XMLID_236_">
            <path id="XMLID_497_" class="cls-4" d="M673,499.8a4.026,4.026,0,0,1-1.1-7.9,3.4,3.4,0,0,1,1-.1,4.026,4.026,0,0,1,1.1,7.9A3.083,3.083,0,0,1,673,499.8Z"/>
            <path id="XMLID_494_" class="cls-6" d="M673,492.8h0a3,3,0,0,1,2.9,2.2,3.071,3.071,0,0,1-2.1,3.7,2.2,2.2,0,0,1-.8.1,3,3,0,0,1-2.9-2.2,3.064,3.064,0,0,1,.3-2.3,2.827,2.827,0,0,1,1.8-1.4c.3,0,.5-.1.8-.1m0-2a5.852,5.852,0,0,0-1.3.2,4.887,4.887,0,0,0-3.5,6.1,5.012,5.012,0,0,0,4.8,3.7,5.852,5.852,0,0,0,1.3-.2,4.887,4.887,0,0,0,3.5-6.1,5.012,5.012,0,0,0-4.8-3.7Z"/>
          </g>
        </g>
      </g>
      <g id="front_3_">
        <rect id="base_6_" class="cls-1" width="190" height="267" transform="translate(683 445)"/>
        <g id="lines_1_">
          <line id="XMLID_235_" class="cls-2" y2="251" transform="translate(717 453)"/>
          <line id="XMLID_234_" class="cls-3" x2="179" transform="translate(689 472.5)"/>
          <line id="XMLID_233_" class="cls-3" x2="179" transform="translate(689 480.5)"/>
          <line id="XMLID_232_" class="cls-3" x2="179" transform="translate(689 488.5)"/>
          <line id="XMLID_231_" class="cls-3" x2="179" transform="translate(689 496.5)"/>
          <line id="XMLID_230_" class="cls-3" x2="179" transform="translate(689 504.5)"/>
          <line id="XMLID_229_" class="cls-3" x2="179" transform="translate(689 512.5)"/>
          <line id="XMLID_228_" class="cls-3" x2="179" transform="translate(689 520.5)"/>
          <line id="XMLID_227_" class="cls-3" x2="179" transform="translate(689 528.5)"/>
          <line id="XMLID_226_" class="cls-3" x2="179" transform="translate(689 536.5)"/>
          <line id="XMLID_225_" class="cls-3" x2="179" transform="translate(689 544.5)"/>
          <line id="XMLID_224_" class="cls-3" x2="179" transform="translate(689 552.5)"/>
          <line id="XMLID_223_" class="cls-3" x2="179" transform="translate(689 560.5)"/>
          <line id="XMLID_222_" class="cls-3" x2="179" transform="translate(689 568.5)"/>
          <line id="XMLID_221_" class="cls-3" x2="179" transform="translate(689 576.5)"/>
          <line id="XMLID_220_" class="cls-3" x2="179" transform="translate(689 584.5)"/>
          <line id="XMLID_219_" class="cls-3" x2="179" transform="translate(689 592.5)"/>
          <line id="XMLID_218_" class="cls-3" x2="179" transform="translate(689 600.5)"/>
          <line id="XMLID_217_" class="cls-3" x2="179" transform="translate(689 608.5)"/>
          <line id="XMLID_216_" class="cls-3" x2="179" transform="translate(689 616.5)"/>
          <line id="XMLID_215_" class="cls-3" x2="179" transform="translate(689 624.5)"/>
          <line id="XMLID_214_" class="cls-3" x2="179" transform="translate(689 632.5)"/>
          <line id="XMLID_213_" class="cls-3" x2="179" transform="translate(689 640.5)"/>
          <line id="XMLID_212_" class="cls-3" x2="179" transform="translate(689 648.5)"/>
          <line id="XMLID_211_" class="cls-3" x2="179" transform="translate(689 656.5)"/>
          <line id="XMLID_210_" class="cls-3" x2="179" transform="translate(689 664.5)"/>
          <line id="XMLID_209_" class="cls-3" x2="179" transform="translate(689 672.5)"/>
          <line id="XMLID_208_" class="cls-3" x2="179" transform="translate(689 680.5)"/>
          <line id="XMLID_207_" class="cls-3" x2="179" transform="translate(689 688.5)"/>
          <line id="XMLID_206_" class="cls-3" x2="179" transform="translate(689 696.5)"/>
        </g>
        <g id="holes_1_">
          <g id="XMLID_205_">
            <path id="XMLID_525_" class="cls-4" d="M697.8,688.5a4,4,0,1,1,4-4A3.949,3.949,0,0,1,697.8,688.5Z"/>
            <path id="XMLID_490_" class="cls-5" d="M697.8,681.5a3,3,0,1,1-3,3,3.009,3.009,0,0,1,3-3m0-2a5,5,0,1,0,5,5,4.951,4.951,0,0,0-5-5Z"/>
          </g>
          <g id="XMLID_204_">
            <path id="XMLID_531_" class="cls-4" d="M697.8,582a4,4,0,1,1,4-4A3.949,3.949,0,0,1,697.8,582Z"/>
            <path id="XMLID_526_" class="cls-6" d="M697.8,575a3,3,0,1,1-3,3,3.009,3.009,0,0,1,3-3m0-2a5,5,0,1,0,5,5,4.951,4.951,0,0,0-5-5Z"/>
          </g>
          <g id="XMLID_203_">
            <path id="XMLID_549_" class="cls-4" d="M697.8,475.5a4,4,0,1,1,4-4A3.949,3.949,0,0,1,697.8,475.5Z"/>
            <path id="XMLID_532_" class="cls-6" d="M697.8,468.5a3,3,0,1,1-3,3,3.009,3.009,0,0,1,3-3m0-2a5,5,0,1,0,5,5,4.951,4.951,0,0,0-5-5Z"/>
          </g>
        </g>
      </g>
    </g>
    <g id="micron" transform="translate(-397.9 -1105)">
      <path id="XMLID_25_" class="cls-7" d="M572.7,588.8"/>
      <path id="XMLID_24_" class="cls-8" d="M568.6,541l-7,.6a.9.9,0,0,0-.9,1.1l3.3,38a3.866,3.866,0,0,0,4.3,3.5l15-1.3"/>
      <path id="XMLID_23_" class="cls-7" d="M572.7,588.8"/>
      <path id="XMLID_22_" class="cls-9" d="M569.5,574.1l11.9,136.4a1,1,0,0,0,1,1l1.1-.1.4,5a.9.9,0,0,0,1.1.9l9-.8a.945.945,0,0,0,.9-1.1l-.4-5,.9-.1a1.09,1.09,0,0,0,1-1.1L584.5,572.8Z"/>
      <path id="XMLID_21_" class="cls-9" d="M570.3,584l-4.5-51.8a1.009,1.009,0,0,1,.9-1.1l13-1.1c.6,0,1.1.3,1.1.9l4.5,51.8"/>
      <line id="XMLID_20_" class="cls-10" y1="1.2" x2="13" transform="translate(571.3 582.8)"/>
      <line id="XMLID_19_" class="cls-10" y1="1.1" x2="13" transform="translate(567.4 538)"/>
      <rect id="XMLID_18_" class="cls-4" width="11" height="5" transform="translate(567.91 533.087) rotate(-5)"/>
      <rect id="XMLID_17_" class="cls-5" width="7" height="2" transform="translate(585.332 709.208) rotate(-5)"/>
      <rect id="XMLID_16_" class="cls-4" width="7" height="4" transform="translate(585.446 711.217) rotate(-5)"/>
    </g>
    <g id="pencil_1_" transform="translate(-397.9 -1105)">
      <path id="XMLID_15_" class="cls-11" d="M546.8,757.2l-5.8,1.6c-2.1.6-4.5.3-5-1.8L488.6,580.2l1.6-21.1,11.9,17.5,47.4,176.8C550.1,755.4,548.9,756.6,546.8,757.2Z"/>
      <rect id="XMLID_14_" class="cls-8" width="14" height="9" transform="matrix(0.966, -0.259, 0.259, 0.966, 530.052, 734.743)"/>
      <line id="XMLID_13_" class="cls-10" x2="40.9" y2="152.6" transform="translate(493.7 579.9)"/>
      <line id="XMLID_12_" class="cls-10" x2="40.9" y2="152.6" transform="translate(497.6 578.8)"/>
      <line id="XMLID_11_" class="cls-10" y1="2.6" x2="9.7" transform="translate(490.5 577.1)"/>
      <path id="XMLID_10_" class="cls-4" d="M488.7,579.1l2.1-19.2,11.5,15.6Z"/>
      <rect id="XMLID_9_" class="cls-6" width="4" height="6" transform="matrix(0.966, -0.259, 0.259, 0.966, 489.571, 564.407)"/>
      <path id="XMLID_8_" class="cls-12" d="M546.8,757.2l-5.8,1.6c-2.1.6-4.5.3-5-1.8L488.6,580.2l1.6-21.1,11.9,17.5,47.4,176.8C550.1,755.4,548.9,756.6,546.8,757.2Z"/>
    </g>
  </g>
</svg>
