<svg xmlns="http://www.w3.org/2000/svg" viewBox="0 0 379.433 449.653">
  <defs>
    <style>
      .cls-1 {
        fill: #657aeb;
      }
    </style>
  </defs>
  <g id="kamus" transform="translate(-35.11)">
    <g id="Group_12" data-name="Group 12">
      <path id="Path_7" data-name="Path 7" class="cls-1" d="M78.35,70.451a12.5,12.5,0,0,0,12.5,12.5H330.384V393.472a12.5,12.5,0,1,0,25,0V70.451a12.5,12.5,0,0,0-12.5-12.5H90.85A12.5,12.5,0,0,0,78.35,70.451Z"/>
      <path id="Path_8" data-name="Path 8" class="cls-1" d="M402.042,0H84.557A12.5,12.5,0,0,0,74.221,5.47L37.305,59.742a12.5,12.5,0,0,0-2.164,7.029L35.11,409.05c0,.3.011.6.031.888v27.215a12.5,12.5,0,0,0,12.5,12.5H346.126a15.8,15.8,0,0,0,8.52-2.866l54.992-42.067a12.494,12.494,0,0,0,4.9-9.928V12.5A12.5,12.5,0,0,0,402.042,0Zm-12.5,388.615-47.109,36.037H60.14v-15.6c0-.3-.011-.593-.031-.885L60.14,70.622,91.172,25h298.37V388.615Z"/>
      <path id="Path_9" data-name="Path 9" class="cls-1" d="M167.417,188.772a6.789,6.789,0,0,0-6.426-4.6H148.438a6.789,6.789,0,0,0-6.429,4.6L106.271,293.963a6.789,6.789,0,0,0,6.429,8.973h7.711a6.776,6.776,0,0,0,6.447-4.66l10.1-30.575h34.874l10.4,30.63a6.787,6.787,0,0,0,6.429,4.605h8.225a6.788,6.788,0,0,0,6.425-8.983ZM142.208,249.66l9.467-27.971.038-.116c.866-2.733,1.724-5.609,2.589-8.686.816,2.874,1.729,5.868,2.79,8.98l9.455,27.792Z"/>
      <path id="Path_10" data-name="Path 10" class="cls-1" d="M259.342,213.926c-9.7,0-18.175,3.136-24.39,8.931V190.683a6.8,6.8,0,0,0-6.789-6.79h-7.686a6.789,6.789,0,0,0-6.789,6.79l.006,105.463a6.8,6.8,0,0,0,6.789,6.789h6.1a6.8,6.8,0,0,0,6.789-6.789c0-.086,0-.174-.005-.26,6.055,5.9,14.041,8.877,23.814,8.877a37.693,37.693,0,0,0,27.136-11.709c8.047-8.446,12.3-20.437,12.3-34.66.1-13.981-4.289-26.149-12.347-34.26A34.35,34.35,0,0,0,259.342,213.926Zm11.969,67.4c-3.342,3.406-7.689,5.062-13.291,5.062-5.318,0-9.387-1.563-12.437-4.778-7.46-7.868-6.817-22.962-6.812-23.091.006-.092.009-.2.011-.29.019-1.06.664-25.935,19.735-25.935,19.158,0,20.52,25,20.565,26.006C279.153,262.438,277.885,274.631,271.311,281.33Z"/>
    </g>
  </g>
</svg>
