<svg xmlns="http://www.w3.org/2000/svg" viewBox="0 0 38.719 191.32">
  <defs>
    <style>
      .cls-1, .cls-4 {
        fill: #fff;
      }

      .cls-1, .cls-2, .cls-3 {
        stroke: #1485e0;
        stroke-miterlimit: 10;
      }

      .cls-1, .cls-3 {
        stroke-width: 2px;
      }

      .cls-2 {
        fill: #c4e1f7;
        stroke-width: 4px;
      }

      .cls-3 {
        fill: none;
      }

      .cls-5 {
        fill: #1485e0;
      }
    </style>
  </defs>
  <g id="micron" transform="translate(-559.682 -528)">
    <path id="XMLID_25_" class="cls-1" d="M572.7,588.8"/>
    <path id="XMLID_24_" class="cls-1" d="M568.6,541l-7,.6a.9.9,0,0,0-.9,1.1l3.3,38a3.866,3.866,0,0,0,4.3,3.5l15-1.3"/>
    <path id="XMLID_23_" class="cls-1" d="M572.7,588.8"/>
    <path id="XMLID_22_" class="cls-2" d="M569.5,574.1l11.9,136.4a1,1,0,0,0,1,1l1.1-.1.4,5a.9.9,0,0,0,1.1.9l9-.8a.945.945,0,0,0,.9-1.1l-.4-5,.9-.1a1.09,1.09,0,0,0,1-1.1L584.5,572.8Z"/>
    <path id="XMLID_21_" class="cls-2" d="M570.3,584l-4.5-51.8a1.009,1.009,0,0,1,.9-1.1l13-1.1c.6,0,1.1.3,1.1.9l4.5,51.8"/>
    <line id="XMLID_20_" class="cls-3" y1="1.2" x2="13" transform="translate(571.3 582.8)"/>
    <line id="XMLID_19_" class="cls-3" y1="1.1" x2="13" transform="translate(567.4 538)"/>
    <rect id="XMLID_18_" class="cls-4" width="11" height="5" transform="translate(567.91 533.087) rotate(-5)"/>
    <rect id="XMLID_17_" class="cls-5" width="7" height="2" transform="translate(585.332 709.208) rotate(-5)"/>
    <rect id="XMLID_16_" class="cls-4" width="7" height="4" transform="translate(585.446 711.217) rotate(-5)"/>
  </g>
</svg>
