<svg xmlns="http://www.w3.org/2000/svg" viewBox="0 0 65.085 207.836">
  <defs>
    <style>
      .cls-1 {
        fill: #c4e1f7;
      }

      .cls-2, .cls-4 {
        fill: #fff;
      }

      .cls-2, .cls-3, .cls-6 {
        stroke: #1485e0;
        stroke-miterlimit: 10;
      }

      .cls-2, .cls-3 {
        stroke-width: 2px;
      }

      .cls-3, .cls-6 {
        fill: none;
      }

      .cls-5 {
        fill: #1485e0;
      }

      .cls-6 {
        stroke-width: 4px;
      }
    </style>
  </defs>
  <g id="pencil_1_" transform="translate(-486.58 -553.246)">
    <path id="XMLID_15_" class="cls-1" d="M546.8,757.2l-5.8,1.6c-2.1.6-4.5.3-5-1.8L488.6,580.2l1.6-21.1,11.9,17.5,47.4,176.8C550.1,755.4,548.9,756.6,546.8,757.2Z"/>
    <rect id="XMLID_14_" class="cls-2" width="14" height="9" transform="matrix(0.966, -0.259, 0.259, 0.966, 530.052, 734.743)"/>
    <line id="XMLID_13_" class="cls-3" x2="40.9" y2="152.6" transform="translate(493.7 579.9)"/>
    <line id="XMLID_12_" class="cls-3" x2="40.9" y2="152.6" transform="translate(497.6 578.8)"/>
    <line id="XMLID_11_" class="cls-3" y1="2.6" x2="9.7" transform="translate(490.5 577.1)"/>
    <path id="XMLID_10_" class="cls-4" d="M488.7,579.1l2.1-19.2,11.5,15.6Z"/>
    <rect id="XMLID_9_" class="cls-5" width="4" height="6" transform="matrix(0.966, -0.259, 0.259, 0.966, 489.571, 564.407)"/>
    <path id="XMLID_8_" class="cls-6" d="M546.8,757.2l-5.8,1.6c-2.1.6-4.5.3-5-1.8L488.6,580.2l1.6-21.1,11.9,17.5,47.4,176.8C550.1,755.4,548.9,756.6,546.8,757.2Z"/>
  </g>
</svg>
