<svg id="sejarah" xmlns="http://www.w3.org/2000/svg" viewBox="0 0 512 512">
  <defs>
    <style>
      .cls-1 {
        fill: #de87de;
      }
    </style>
  </defs>
  <path id="Path_18" data-name="Path 18" class="cls-1" d="M458,381.113V163.668a10.009,10.009,0,0,0-4.117-8.09L429.2,137.629l19.438-12.148a10,10,0,0,0,.738-16.449L431.332,95.363V89H448a10,10,0,0,0,10-10V59A59.069,59.069,0,0,0,399,0H58c-.1,0-.2.012-.293.016-.23,0-.453-.016-.684-.016C41.277,0,26.648,7.777,15.832,21.9,5.621,35.234,0,52.813,0,71.4,0,104.813,21.871,132,48.754,132h55.324V290.5a10,10,0,0,0,4.559,8.391L128.242,311.6l-20.828,18.609a10,10,0,0,0-3.336,7.457v86.664a9.244,9.244,0,0,1,0,3.168c0,25.441,6.57,46.855,19,61.926A61.247,61.247,0,0,0,171.137,512H446a65.993,65.993,0,0,0,12-130.887ZM82.074,112a40.042,40.042,0,0,0,4.613-18.84C86.688,70.105,71.754,54,50.367,54a10,10,0,0,0,0,20c10.219,0,16.32,7.164,16.32,19.16,0,12.238-9.242,18.84-17.934,18.84C33.168,112,20,93.406,20,71.4,20,43.059,36.609,20,57.023,20c14.141,0,25.2,4.395,32.848,13.059C99.3,43.727,104.078,61.035,104.078,84.5V112ZM138.5,476.7c-9.437-11.445-14.426-28.457-14.426-49.2a9.244,9.244,0,0,1,0-3.168V342.141l27.25-24.352a10,10,0,0,0-1.219-15.848l-26.031-16.875V84.5c0-28.371-6.418-50.066-19.062-64.5H399a39.045,39.045,0,0,1,39,39V69H421.332a10,10,0,0,0-10,10v21.332A10,10,0,0,0,415.3,108.3l10.434,7.906-19.7,12.309a10,10,0,0,0-.582,16.566L438,168.758V380H183.766a9.943,9.943,0,0,0-1.453.117c-.961-.07-1.93-.117-2.91-.117-21.27,0-37.934,17.063-37.934,38.84,0,23.059,14.934,39.16,36.32,39.16a10,10,0,0,0,0-20c-10.219,0-16.32-7.164-16.32-19.16,0-12.238,9.242-18.84,17.934-18.84,15.586,0,28.754,18.594,28.754,40.6,0,28.34-16.605,51.4-37.02,51.4A41.026,41.026,0,0,1,138.5,476.7ZM446,492H210.793c.516-.625,1.031-1.25,1.531-1.9,9.586-12.516,15.125-28.777,15.77-46.1H384a10,10,0,0,0,0-20H226.281a65.79,65.79,0,0,0-10.719-24H446a46,46,0,0,1,0,92Zm0,0"/>
  <path id="Path_19" data-name="Path 19" class="cls-1" d="M189.359,98a10,10,0,1,0-7.07-2.93A10.1,10.1,0,0,0,189.359,98Zm0,0"/>
  <path id="Path_20" data-name="Path 20" class="cls-1" d="M232,98H376.355a10,10,0,0,0,0-20H232a10,10,0,0,0,0,20Zm0,0"/>
  <path id="Path_21" data-name="Path 21" class="cls-1" d="M189.355,154h187a10,10,0,0,0,0-20h-187a10,10,0,0,0,0,20Zm0,0"/>
  <path id="Path_22" data-name="Path 22" class="cls-1" d="M189.355,210h187a10,10,0,0,0,0-20h-187a10,10,0,0,0,0,20Zm0,0"/>
  <path id="Path_23" data-name="Path 23" class="cls-1" d="M189.355,266h187a10,10,0,0,0,0-20h-187a10,10,0,0,0,0,20Zm0,0"/>
  <path id="Path_24" data-name="Path 24" class="cls-1" d="M189.355,322h187a10,10,0,0,0,0-20h-187a10,10,0,0,0,0,20Zm0,0"/>
  <path id="Path_25" data-name="Path 25" class="cls-1" d="M422.871,424a10.009,10.009,0,1,0,7.066,2.93A10.073,10.073,0,0,0,422.871,424Zm0,0"/>
</svg>
