<svg xmlns="http://www.w3.org/2000/svg" xmlns:xlink="http://www.w3.org/1999/xlink" viewBox="0 0 294.891 241.591">
  <defs>
    <style>
      .cls-1, .cls-2 {
        fill: #58c693;
      }

      .cls-2 {
        opacity: 0.174;
      }

      .cls-3 {
        clip-path: url(#clip-path);
      }

      .cls-11, .cls-15, .cls-23, .cls-26, .cls-4, .cls-5, .cls-8 {
        fill: #fff;
      }

      .cls-5 {
        fill-rule: evenodd;
        opacity: 0.44;
      }

      .cls-6 {
        clip-path: url(#clip-path-4);
      }

      .cls-7 {
        fill: #c4e1f7;
      }

      .cls-12, .cls-19, .cls-25, .cls-26, .cls-7, .cls-8 {
        stroke: #58c693;
      }

      .cls-10, .cls-11, .cls-12, .cls-15, .cls-17, .cls-19, .cls-21, .cls-23, .cls-25, .cls-26, .cls-27, .cls-7, .cls-8, .cls-9 {
        stroke-miterlimit: 10;
      }

      .cls-10, .cls-11, .cls-17, .cls-19, .cls-21, .cls-23, .cls-27, .cls-7, .cls-8 {
        stroke-width: 2px;
      }

      .cls-10, .cls-17, .cls-19, .cls-21, .cls-25, .cls-27, .cls-9 {
        fill: none;
      }

      .cls-10, .cls-9 {
        stroke: #69d37e;
      }

      .cls-26, .cls-9 {
        stroke-width: 4px;
      }

      .cls-11, .cls-27 {
        stroke: #1485e0;
      }

      .cls-12 {
        fill: #cbded5;
        stroke-width: 4.182px;
      }

      .cls-13 {
        clip-path: url(#clip-path-6);
      }

      .cls-14 {
        clip-path: url(#clip-path-7);
      }

      .cls-15 {
        stroke: #fff;
      }

      .cls-16 {
        clip-path: url(#clip-path-8);
      }

      .cls-17 {
        stroke: #3daa41;
      }

      .cls-18 {
        clip-path: url(#clip-path-9);
      }

      .cls-20 {
        clip-path: url(#clip-path-10);
      }

      .cls-21, .cls-23 {
        stroke: #459048;
      }

      .cls-22 {
        clip-path: url(#clip-path-11);
      }

      .cls-23 {
        stroke-linejoin: round;
      }

      .cls-24 {
        clip-path: url(#clip-path-12);
      }

      .cls-27 {
        stroke-dasharray: 2 2;
      }
    </style>
    <clipPath id="clip-path">
      <rect id="Rectangle_6" data-name="Rectangle 6" width="261" height="196" transform="translate(293 285)"/>
    </clipPath>
    <clipPath id="clip-path-4">
      <rect id="Rectangle_9" data-name="Rectangle 9" width="261" height="196" transform="translate(-2 -21)"/>
    </clipPath>
    <clipPath id="clip-path-6">
      <circle id="Ellipse_5" data-name="Ellipse 5" class="cls-1" cx="37" cy="37" r="37" transform="translate(-1 -1)"/>
    </clipPath>
    <clipPath id="clip-path-7">
      <circle id="Ellipse_6" data-name="Ellipse 6" cx="37" cy="37" r="37" transform="translate(-11 -11)"/>
    </clipPath>
    <clipPath id="clip-path-8">
      <circle id="Ellipse_7" data-name="Ellipse 7" cx="37" cy="37" r="37" transform="translate(-21 -21)"/>
    </clipPath>
    <clipPath id="clip-path-9">
      <circle id="Ellipse_8" data-name="Ellipse 8" cx="37" cy="37" r="37" transform="translate(-37.2 -37.5)"/>
    </clipPath>
    <clipPath id="clip-path-10">
      <circle id="Ellipse_9" data-name="Ellipse 9" cx="37" cy="37" r="37" transform="translate(-37 -26)"/>
    </clipPath>
    <clipPath id="clip-path-11">
      <circle id="Ellipse_10" data-name="Ellipse 10" cx="37" cy="37" r="37" transform="translate(-34 -34)"/>
    </clipPath>
    <clipPath id="clip-path-12">
      <circle id="Ellipse_11" data-name="Ellipse 11" cx="37" cy="37" r="37" transform="translate(503.8 856.5)"/>
    </clipPath>
  </defs>
  <g id="tugas" transform="translate(101.9 1246)">
    <g id="window" transform="translate(-392.9 -1529)">
      <rect id="Rectangle_5" data-name="Rectangle 5" class="cls-2" width="261" height="196" transform="translate(293 285)"/>
      <g id="Group_1" data-name="Group 1" class="cls-3">
        <path id="background-toolbar" class="cls-4" d="M548.8,286.5h-251a2.946,2.946,0,0,0-3,3v17h257v-17A2.946,2.946,0,0,0,548.8,286.5Z"/>
      </g>
      <g id="Group_2" data-name="Group 2" class="cls-3">
        <path id="icon-valid" class="cls-1" d="M461.2,349.4,410.6,400l-20.1-20.1-8.8,8.8,28.9,28.9,59.5-59.4Z"/>
      </g>
      <g id="Group_3" data-name="Group 3" class="cls-3">
        <path id="light" class="cls-5" d="M411.8,480.5h-119v-174h183Z"/>
      </g>
      <g id="Group_4" data-name="Group 4" class="cls-6" transform="translate(295 306)">
        <line id="separator" class="cls-7" x2="257"/>
      </g>
      <g id="control-buttons" class="cls-3">
        <circle id="XMLID_430_" class="cls-8" cx="3" cy="3" r="3" transform="translate(304.1 292.5)"/>
        <circle id="XMLID_429_" class="cls-8" cx="3" cy="3" r="3" transform="translate(315.1 292.5)"/>
        <circle id="XMLID_428_" class="cls-8" cx="3" cy="3" r="3" transform="translate(326.1 292.5)"/>
      </g>
      <rect id="Rectangle_11" data-name="Rectangle 11" class="cls-9" width="261" height="196" transform="translate(293 285)"/>
    </g>
    <g id="clock" transform="translate(-395.9 -1946)">
      <circle id="XMLID_126_" class="cls-10" cx="20" cy="20" r="20" transform="translate(520.8 800.5)"/>
      <rect id="XMLID_125_" class="cls-11" width="8" height="12" transform="translate(537 839)"/>
      <circle id="XMLID_124_" class="cls-12" cx="46" cy="46" r="46" transform="translate(494.8 847.5)"/>
      <g id="XMLID_679_">
        <g id="Group_13" data-name="Group 13" class="cls-13" transform="translate(504.8 857.5)">
          <circle id="XMLID_123_" class="cls-8" cx="36" cy="36" r="36"/>
        </g>
        <g id="Group_14" data-name="Group 14" class="cls-14" transform="translate(514.8 867.5)">
          <circle id="XMLID_122_" class="cls-15" cx="26" cy="26" r="26"/>
        </g>
        <g id="Group_15" data-name="Group 15" class="cls-16" transform="translate(524.8 877.5)">
          <line id="XMLID_120_" class="cls-17" x1="16" y1="16"/>
        </g>
        <g id="Group_16" data-name="Group 16" class="cls-18" transform="translate(541 894)">
          <line id="XMLID_119_" class="cls-19" x2="23"/>
        </g>
        <g id="Group_17" data-name="Group 17" class="cls-20" transform="translate(540.8 882.5)">
          <line id="XMLID_118_" class="cls-21" x1="12" y2="11"/>
        </g>
        <g id="Group_18" data-name="Group 18" class="cls-22" transform="translate(537.8 890.5)">
          <circle id="XMLID_116_" class="cls-23" cx="3" cy="3" r="3"/>
        </g>
        <g id="lignes_time_2_" class="cls-24">
          <line id="XMLID_111_" class="cls-25" y1="9" transform="translate(540.8 860.5)"/>
          <line id="XMLID_110_" class="cls-25" x1="0.4" y1="4" transform="translate(537.4 860.7)"/>
          <line id="XMLID_109_" class="cls-25" x1="0.8" y1="3.9" transform="translate(534 861.2)"/>
          <line id="XMLID_108_" class="cls-25" x1="1.3" y1="3.8" transform="translate(530.6 862.1)"/>
          <line id="XMLID_107_" class="cls-25" x1="1.6" y1="3.6" transform="translate(527.4 863.4)"/>
          <line id="XMLID_106_" class="cls-25" x1="2" y1="3.5" transform="translate(524.3 864.9)"/>
          <line id="XMLID_105_" class="cls-25" x1="2.4" y1="3.2" transform="translate(521.4 866.8)"/>
          <line id="XMLID_104_" class="cls-25" x1="2.6" y1="2.9" transform="translate(518.8 869)"/>
          <line id="XMLID_103_" class="cls-25" x1="3" y1="2.7" transform="translate(516.3 871.4)"/>
          <line id="XMLID_102_" class="cls-25" x1="3.3" y1="2.4" transform="translate(514.1 874.1)"/>
          <line id="XMLID_101_" class="cls-25" x1="3.4" y1="2" transform="translate(512.3 877)"/>
          <line id="XMLID_100_" class="cls-25" x1="3.7" y1="1.6" transform="translate(510.7 880.1)"/>
          <line id="XMLID_99_" class="cls-25" x1="3.8" y1="1.2" transform="translate(509.5 883.3)"/>
          <line id="XMLID_98_" class="cls-25" x1="3.9" y1="0.9" transform="translate(508.6 886.6)"/>
          <line id="XMLID_97_" class="cls-25" x1="4" y1="0.4" transform="translate(508 890.1)"/>
          <line id="XMLID_96_" class="cls-25" x1="9" transform="translate(507.8 893.5)"/>
          <line id="XMLID_95_" class="cls-25" x1="4" y2="0.4" transform="translate(508 896.5)"/>
          <line id="XMLID_94_" class="cls-25" x1="3.9" y2="0.9" transform="translate(508.6 899.5)"/>
          <line id="XMLID_93_" class="cls-25" x1="3.8" y2="1.2" transform="translate(509.5 902.5)"/>
          <line id="XMLID_92_" class="cls-25" x1="3.7" y2="1.6" transform="translate(510.7 905.3)"/>
          <line id="XMLID_91_" class="cls-25" x1="3.4" y2="2" transform="translate(512.3 908)"/>
          <line id="XMLID_90_" class="cls-25" x1="3.3" y2="2.4" transform="translate(514.1 910.5)"/>
          <line id="XMLID_89_" class="cls-25" x1="3" y2="2.7" transform="translate(516.3 912.9)"/>
          <line id="XMLID_88_" class="cls-25" x1="2.6" y2="2.9" transform="translate(518.8 915.1)"/>
          <line id="XMLID_87_" class="cls-25" x1="2.4" y2="3.2" transform="translate(521.4 917)"/>
          <line id="XMLID_86_" class="cls-25" x1="2" y2="3.5" transform="translate(524.3 918.6)"/>
          <line id="XMLID_85_" class="cls-25" x1="1.6" y2="3.6" transform="translate(527.4 920)"/>
          <line id="XMLID_84_" class="cls-25" x1="1.3" y2="3.8" transform="translate(530.6 921.1)"/>
          <line id="XMLID_83_" class="cls-25" x1="0.8" y2="3.9" transform="translate(534 921.9)"/>
          <line id="XMLID_82_" class="cls-25" x1="0.4" y2="4" transform="translate(537.4 922.3)"/>
          <line id="XMLID_81_" class="cls-25" y2="9" transform="translate(540.8 917.5)"/>
          <line id="XMLID_80_" class="cls-25" x2="0.4" y2="4" transform="translate(543.9 922.3)"/>
          <line id="XMLID_79_" class="cls-25" x2="0.8" y2="3.9" transform="translate(546.9 921.9)"/>
          <line id="XMLID_78_" class="cls-25" x2="1.2" y2="3.8" transform="translate(549.8 921.1)"/>
          <line id="XMLID_77_" class="cls-25" x2="1.7" y2="3.6" transform="translate(552.6 920)"/>
          <line id="XMLID_76_" class="cls-25" x2="2" y2="3.5" transform="translate(555.3 918.6)"/>
          <line id="XMLID_75_" class="cls-25" x2="2.3" y2="3.2" transform="translate(557.9 917)"/>
          <line id="XMLID_74_" class="cls-25" x2="2.7" y2="2.9" transform="translate(560.2 915.1)"/>
          <line id="XMLID_73_" class="cls-25" x2="3" y2="2.7" transform="translate(562.4 912.9)"/>
          <line id="XMLID_72_" class="cls-25" x2="3.2" y2="2.4" transform="translate(564.3 910.5)"/>
          <line id="XMLID_71_" class="cls-25" x2="3.4" y2="2" transform="translate(566 908)"/>
          <line id="XMLID_70_" class="cls-25" x2="3.7" y2="1.6" transform="translate(567.3 905.3)"/>
          <line id="XMLID_69_" class="cls-25" x2="3.8" y2="1.2" transform="translate(568.4 902.5)"/>
          <line id="XMLID_68_" class="cls-25" x2="3.9" y2="0.9" transform="translate(569.2 899.5)"/>
          <line id="XMLID_67_" class="cls-25" x2="4" y2="0.4" transform="translate(569.7 896.5)"/>
          <line id="XMLID_66_" class="cls-25" x2="9" transform="translate(564.8 893.5)"/>
          <line id="XMLID_65_" class="cls-25" y1="0.4" x2="4" transform="translate(569.7 890.1)"/>
          <line id="XMLID_64_" class="cls-25" y1="0.9" x2="3.9" transform="translate(569.2 886.6)"/>
          <line id="XMLID_63_" class="cls-25" y1="1.2" x2="3.8" transform="translate(568.4 883.3)"/>
          <line id="XMLID_62_" class="cls-25" y1="1.6" x2="3.7" transform="translate(567.3 880.1)"/>
          <line id="XMLID_61_" class="cls-25" y1="2" x2="3.4" transform="translate(566 877)"/>
          <line id="XMLID_60_" class="cls-25" y1="2.4" x2="3.2" transform="translate(564.3 874.1)"/>
          <line id="XMLID_59_" class="cls-25" y1="2.7" x2="3" transform="translate(562.4 871.4)"/>
          <line id="XMLID_58_" class="cls-25" y1="2.9" x2="2.7" transform="translate(560.2 869)"/>
          <line id="XMLID_57_" class="cls-25" y1="3.2" x2="2.3" transform="translate(557.9 866.8)"/>
          <line id="XMLID_56_" class="cls-25" y1="3.5" x2="2" transform="translate(555.3 864.9)"/>
          <line id="XMLID_55_" class="cls-25" y1="3.6" x2="1.7" transform="translate(552.6 863.4)"/>
          <line id="XMLID_54_" class="cls-25" y1="3.8" x2="1.2" transform="translate(549.8 862.1)"/>
          <line id="XMLID_53_" class="cls-25" y1="3.9" x2="0.8" transform="translate(546.9 861.2)"/>
          <line id="XMLID_52_" class="cls-25" y1="4" x2="0.4" transform="translate(543.9 860.7)"/>
        </g>
        <g id="Group_19" data-name="Group 19" class="cls-24">
          <path id="light_1_" class="cls-5" d="M509.8,979H391V805H573.8Z" transform="translate(-2 2)"/>
        </g>
      </g>
      <g id="XMLID_675_">
        <path id="XMLID_50_" class="cls-26" d="M550.2,826H532.6c-2.3,0-4.5.4-4.5,2.8V840h26V828.8C554,826.4,552.5,826,550.2,826Z"/>
        <line id="XMLID_49_" class="cls-27" x2="22" transform="translate(531.8 830.5)"/>
        <line id="XMLID_48_" class="cls-27" x2="22" transform="translate(531.8 834.5)"/>
      </g>
    </g>
  </g>
</svg>
