<svg xmlns="http://www.w3.org/2000/svg" xmlns:xlink="http://www.w3.org/1999/xlink" viewBox="0 0 265 200">
  <defs>
    <style>
      .cls-1, .cls-7 {
        fill: #c4e1f7;
      }

      .cls-2 {
        clip-path: url(#clip-path);
      }

      .cls-3, .cls-5, .cls-8 {
        fill: #fff;
      }

      .cls-4 {
        fill: #1485e0;
      }

      .cls-5 {
        fill-rule: evenodd;
        opacity: 0.44;
      }

      .cls-6 {
        clip-path: url(#clip-path-4);
      }

      .cls-7, .cls-8, .cls-9 {
        stroke: #1485e0;
        stroke-miterlimit: 10;
      }

      .cls-7, .cls-8 {
        stroke-width: 2px;
      }

      .cls-9 {
        fill: none;
        stroke-width: 4px;
      }
    </style>
    <clipPath id="clip-path">
      <rect id="Rectangle_6" data-name="Rectangle 6" width="261" height="196" transform="translate(293 285)"/>
    </clipPath>
    <clipPath id="clip-path-4">
      <rect id="Rectangle_9" data-name="Rectangle 9" width="261" height="196" transform="translate(-2 -21)"/>
    </clipPath>
  </defs>
  <g id="window" transform="translate(-291 -283)">
    <rect id="Rectangle_5" data-name="Rectangle 5" class="cls-1" width="261" height="196" transform="translate(293 285)"/>
    <g id="Group_1" data-name="Group 1" class="cls-2">
      <path id="background-toolbar" class="cls-3" d="M548.8,286.5h-251a2.946,2.946,0,0,0-3,3v17h257v-17A2.946,2.946,0,0,0,548.8,286.5Z"/>
    </g>
    <g id="Group_2" data-name="Group 2" class="cls-2">
      <path id="icon-valid" class="cls-4" d="M461.2,349.4,410.6,400l-20.1-20.1-8.8,8.8,28.9,28.9,59.5-59.4Z"/>
    </g>
    <g id="Group_3" data-name="Group 3" class="cls-2">
      <path id="light" class="cls-5" d="M411.8,480.5h-119v-174h183Z"/>
    </g>
    <g id="Group_4" data-name="Group 4" class="cls-6" transform="translate(295 306)">
      <line id="separator" class="cls-7" x2="257"/>
    </g>
    <g id="control-buttons" class="cls-2">
      <circle id="XMLID_430_" class="cls-8" cx="3" cy="3" r="3" transform="translate(304.1 292.5)"/>
      <circle id="XMLID_429_" class="cls-8" cx="3" cy="3" r="3" transform="translate(315.1 292.5)"/>
      <circle id="XMLID_428_" class="cls-8" cx="3" cy="3" r="3" transform="translate(326.1 292.5)"/>
    </g>
    <rect id="Rectangle_11" data-name="Rectangle 11" class="cls-9" width="261" height="196" transform="translate(293 285)"/>
  </g>
</svg>
